<?xml version="1.0" encoding="utf-8"?>
<svg version="1.0" width="100pt" height="61.333pt" viewBox="324.089 294.79 160.545 58.082" preserveAspectRatio="xMidYMid meet" xmlns="http://www.w3.org/2000/svg">
  <g transform="matrix(0.018401, 0, 0, -0.018401, 258.891266, 412.467468)" fill="#f6c700" stroke="none">
    <path d="M3925 6038 c-3 -7 -4 -551 -3 -1208 l3 -1195 335 0 335 0 0 1205 0 1205 -333 3 c-261 2 -334 0 -337 -10z"/>
    <path d="M4775 6038 c-3 -7 -4 -551 -3 -1208 l3 -1195 325 0 325 0 5 679 5 679 300 -458 c165 -252 304 -459 310 -459 5 -1 143 203 306 452 163 249 301 458 308 465 8 8 11 -163 11 -676 l0 -687 330 0 330 0 0 1210 0 1210 -350 0 -350 0 -53 -82 c-29 -46 -159 -255 -288 -465 -175 -285 -237 -379 -245 -370 -6 7 -134 212 -284 457 -150 245 -278 448 -284 452 -6 4 -165 8 -354 8 -265 0 -344 -3 -347 -12z"/>
    <path d="M7505 6038 c-3 -7 -4 -551 -3 -1208 l3 -1195 450 -3 c705 -5 897 19 1175 145 174 79 375 247 472 394 86 131 150 292 180 454 17 92 16 360 -1 455 -101 561 -536 909 -1201 960 -203 15 -1069 13 -1075 -2z m1243 -922 c188 -148 342 -272 342 -276 0 -6 -260 -212 -752 -598 l-68 -53 0 651 0 651 68 -53 c37 -29 221 -174 410 -322z"/>
    <path d="M9930 4839 l0 -1210 738 4 c714 4 740 4 835 26 191 42 309 102 412 207 110 111 158 236 158 409 0 180 -49 304 -167 420 -43 43 -97 84 -138 105 -38 19 -68 37 -68 40 0 3 30 21 68 40 137 71 249 212 289 363 22 82 22 242 0 324 -72 274 -318 439 -704 472 -66 6 -404 11 -770 11 l-653 0 0 -1211z m1312 613 c188 -75 182 -316 -9 -388 -41 -15 -89 -18 -335 -22 l-288 -4 0 215 c0 117 3 217 7 221 5 4 134 6 288 4 262 -4 284 -5 337 -26z m-9 -836 c64 -24 122 -80 136 -131 32 -116 -16 -212 -127 -257 -54 -21 -70 -22 -342 -23 l-285 0 -3 218 -2 219 287 -4 c247 -4 295 -7 336 -22z"/>
  </g>
</svg>